0
SECTION
2
HEADER
9
$INSUNITS
70
4
9
$ACADVER
1
AC1014
9
$HANDSEED
5
FFFF
0
ENDSEC
0
SECTION
2
TABLES
0
TABLE
2
VPORT
5
8
100
AcDbSymbolTable
0
ENDTAB
0
TABLE
2
LTYPE
5
5
100
AcDbSymbolTable
0
LTYPE
5
14
100
AcDbSymbolTableRecord
100
AcDbLinetypeTableRecord
2
BYBLOCK
70
0
0
LTYPE
5
15
100
AcDbSymbolTableRecord
100
AcDbLinetypeTableRecord
2
BYLAYER
70
0
0
ENDTAB
0
TABLE
2
LAYER
5
2
100
AcDbSymbolTable
70
2
0
LAYER
5
50
100
AcDbSymbolTableRecord
100
AcDbLayerTableRecord
2
0
70
0
6
CONTINUOUS
0
ENDTAB
0
TABLE
2
STYLE
5
3
100
AcDbSymbolTable
70
1
0
STYLE
5
11
100
AcDbSymbolTableRecord
100
AcDbTextStyleTableRecord
2
STANDARD
70
0
0
ENDTAB
0
TABLE
2
VIEW
5
6
100
AcDbSymbolTable
70
0
0
ENDTAB
0
TABLE
2
UCS
5
7
100
AcDbSymbolTable
70
0
0
ENDTAB
0
TABLE
2
APPID
5
9
100
AcDbSymbolTable
70
2
0
APPID
5
12
100
AcDbSymbolTableRecord
100
AcDbRegAppTableRecord
2
ACAD
70
0
0
ENDTAB
0
TABLE
2
DIMSTYLE
5
A
100
AcDbSymbolTable
70
1
0
ENDTAB
0
TABLE
2
BLOCK_RECORD
5
1
100
AcDbSymbolTable
70
1
0
BLOCK_RECORD
5
1F
100
AcDbSymbolTableRecord
100
AcDbBlockTableRecord
2
*MODEL_SPACE
0
BLOCK_RECORD
5
1B
100
AcDbSymbolTableRecord
100
AcDbBlockTableRecord
2
*PAPER_SPACE
0
ENDTAB
0
ENDSEC
0
SECTION
2
BLOCKS
0
BLOCK
5
20
100
AcDbEntity
100
AcDbBlockBegin
2
*MODEL_SPACE
0
ENDBLK
5
21
100
AcDbEntity
100
AcDbBlockEnd
0
BLOCK
5
1C
100
AcDbEntity
100
AcDbBlockBegin
2
*PAPER_SPACE
0
ENDBLK
5
1D
100
AcDbEntity
100
AcDbBlockEnd
0
ENDSEC
0
SECTION
2
ENTITIES
0
CIRCLE
5
100
100
AcDbEntity
8
0
100
AcDbCircle
10
-0.0024151260959137666
20
-4.0024747837540744
30
0
40
2.25
210
0
220
-0
230
1
0
CIRCLE
5
101
100
AcDbEntity
8
0
100
AcDbCircle
10
19.003745481371876
20
0
30
0
40
1.7000000000000015
210
0
220
0
230
1
0
CIRCLE
5
102
100
AcDbEntity
8
0
100
AcDbCircle
10
-18.99625451862812
20
0
30
0
40
1.6999999999999993
210
0
220
0
230
1
0
LWPOLYLINE
5
103
100
AcDbEntity
8
0
100
AcDbPolyline
90
10
70
1
43
0.0
10
-20
20
-29.499999999999989
42
-0.30936375895712864
10
-29.499999999999996
20
-22.999999999999989
10
-29.5
20
9.0000000000000018
42
-0.16335791589597703
10
-26.601116747067373
20
17.636019239002994
10
-10.5
20
29.499999999999989
10
10.5
20
29.499999999999989
10
26.601116747067369
20
17.636019239002984
42
-0.16335791589597667
10
29.499999999999996
20
9.0000000000000071
10
29.5
20
-22.999999999999989
42
-0.30936375895712859
10
20
20
-29.499999999999989
0
CIRCLE
5
104
100
AcDbEntity
8
0
100
AcDbCircle
10
-8
20
-21.578289426419829
30
0
40
1.9999999999999982
210
0
220
-0
230
1
0
CIRCLE
5
105
100
AcDbEntity
8
0
100
AcDbCircle
10
8
20
20.499999999999993
30
0
40
1.9999999999999996
210
0
220
-0
230
1
0
LWPOLYLINE
5
106
100
AcDbEntity
8
0
100
AcDbPolyline
90
4
70
1
43
0.0
10
11.55500054359436
20
10.059999883174896
10
11.305000782012939
20
10.059999883174896
10
11.305000782012939
20
9.5600000619888306
10
11.55500054359436
20
9.5600000619888306
0
LWPOLYLINE
5
107
100
AcDbEntity
8
0
100
AcDbPolyline
90
4
70
1
43
0.0
10
-11.55500054359436
20
10.059999883174896
10
-11.55500054359436
20
9.5600000619888306
10
-11.305000782012939
20
9.5600000619888306
10
-11.305000782012939
20
10.059999883174896
0
LWPOLYLINE
5
108
100
AcDbEntity
8
0
100
AcDbPolyline
90
4
70
1
43
0.0
10
11.55500054359436
20
2.4399999380111703
10
11.305000782012939
20
2.4399999380111703
10
11.305000782012939
20
1.9400001168251046
10
11.55500054359436
20
1.9400001168251046
0
LWPOLYLINE
5
109
100
AcDbEntity
8
0
100
AcDbPolyline
90
4
70
1
43
0.0
10
-11.55500054359436
20
1.9400001168251046
10
-11.305000782012939
20
1.9400001168251046
10
-11.305000782012939
20
2.4399999380111703
10
-11.55500054359436
20
2.4399999380111703
0
CIRCLE
5
110
100
AcDbEntity
8
0
100
AcDbCircle
10
9.0000000596046448
20
15.000000059604645
30
0
40
1.5000000000000002
210
0
220
-0
230
1
0
CIRCLE
5
111
100
AcDbEntity
8
0
100
AcDbCircle
10
18.150000268220904
20
-9.0499991357326586
30
0
40
0.40000000000000036
210
0
220
-0
230
1
0
CIRCLE
5
112
100
AcDbEntity
8
0
100
AcDbCircle
10
18.150000268220911
20
-14.049999135732659
30
0
40
0.40000000000000036
210
0
220
-0
230
1
0
CIRCLE
5
113
100
AcDbEntity
8
0
100
AcDbCircle
10
18.150000268220911
20
-16.549999135732659
30
0
40
0.40000000000000036
210
0
220
-0
230
1
0
CIRCLE
5
114
100
AcDbEntity
8
0
100
AcDbCircle
10
18.150000268220904
20
-11.549999135732659
30
0
40
0.40000000000000036
210
0
220
-0
230
1
0
ENDSEC
0
SECTION
2
OBJECTS
0
DICTIONARY
5
C
100
AcDbDictionary
3
ACAD_GROUP
350
D
3
ACAD_MLINESTYLE
350
17
0
DICTIONARY
5
D
100
AcDbDictionary
0
DICTIONARY
5
1A
330
C
100
AcDbDictionary
0
DICTIONARY
5
17
100
AcDbDictionary
0
ENDSEC
0
EOF
